<svg width="240" height="40" viewBox="0 0 240 40" fill="none" xmlns="http://www.w3.org/2000/svg">
<path d="M220 0C208.955 0 200 8.95536 200 20C200 31.0446 208.955 40 220 40C231.045 40 240 31.0446 240 20C240 8.95536 231.045 0 220 0ZM229.612 15.0759C229.625 15.2857 229.625 15.5045 229.625 15.7188C229.625 22.2723 224.634 29.8214 215.513 29.8214C212.701 29.8214 210.094 29.0045 207.897 27.5982C208.299 27.6429 208.683 27.6607 209.094 27.6607C211.415 27.6607 213.549 26.875 215.25 25.5446C213.071 25.5 211.241 24.0714 210.616 22.1071C211.379 22.2188 212.067 22.2188 212.853 22.0179C211.731 21.79 210.723 21.1807 209.999 20.2937C209.276 19.4066 208.882 18.2965 208.884 17.1518V17.0893C209.54 17.4598 210.313 17.6875 211.121 17.7188C210.441 17.266 209.884 16.6527 209.499 15.9332C209.113 15.2136 208.911 14.4101 208.911 13.5938C208.911 12.6696 209.152 11.8259 209.585 11.0938C210.83 12.6265 212.384 13.8801 214.145 14.7731C215.906 15.666 217.836 16.1784 219.808 16.2768C219.107 12.9063 221.625 10.1786 224.652 10.1786C226.08 10.1786 227.366 10.7768 228.272 11.7411C229.393 11.5313 230.464 11.1116 231.42 10.5491C231.049 11.6964 230.272 12.6652 229.241 13.2768C230.241 13.1696 231.205 12.8929 232.098 12.5045C231.424 13.4955 230.58 14.375 229.612 15.0759V15.0759Z" fill="white"/>
<path d="M40 20.1225C40 9.00887 31.0461 0 20.0025 0C8.95388 0.00249969 0 9.00888 0 20.125C0 30.1662 7.31409 38.4902 16.8729 40V25.9393H11.7985V20.125H16.8779V15.688C16.8779 10.6462 19.865 7.86152 24.4319 7.86152C26.6217 7.86152 28.9089 8.25397 28.9089 8.25397V13.2034H26.3867C23.9045 13.2034 23.1296 14.7557 23.1296 16.348V20.1225H28.6739L27.789 25.9368H23.1271V39.9975C32.6859 38.4877 40 30.1637 40 20.1225Z" fill="white"/>
<path d="M170 0C158.954 0 150 8.95427 150 20C150 31.0457 158.954 40 170 40C181.046 40 190 31.0457 190 20C190 8.95427 181.046 0 170 0ZM179.27 13.6016C178.969 16.7641 177.667 24.4385 177.004 27.9806C176.724 29.4794 176.172 29.9819 175.637 30.031C174.476 30.138 173.594 29.2635 172.469 28.5261C170.709 27.3723 169.714 26.654 168.006 25.528C166.031 24.2268 167.311 23.5119 168.437 22.3425C168.731 22.0366 173.848 17.382 173.947 16.9598C173.96 16.9069 173.972 16.7098 173.854 16.6062C173.737 16.5027 173.565 16.5377 173.44 16.5659C173.264 16.606 170.452 18.4646 165.004 22.1419C164.206 22.6899 163.483 22.957 162.835 22.943C162.121 22.9276 160.747 22.5393 159.726 22.2073C158.474 21.8002 157.478 21.5849 157.565 20.8935C157.61 20.5333 158.106 20.165 159.053 19.7886C164.883 17.2484 168.771 15.5737 170.716 14.7644C176.271 12.4542 177.425 12.0529 178.177 12.0395C178.342 12.0368 178.712 12.0777 178.952 12.2722C179.111 12.4107 179.213 12.604 179.237 12.8138C179.277 13.0743 179.289 13.3386 179.27 13.6016V13.6016Z" fill="white"/>
<path d="M70 0C58.9542 0 50 8.95417 50 20C50 31.0458 58.9542 40 70 40C81.0458 40 90 31.0458 90 20C90 8.95417 81.0458 0 70 0ZM77.6917 22.5646C77.6917 22.5646 79.4604 24.3104 79.8958 25.1208C79.9083 25.1375 79.9146 25.1542 79.9187 25.1625C80.0958 25.4604 80.1375 25.6917 80.05 25.8646C79.9042 26.1521 79.4042 26.2938 79.2333 26.3063H76.1083C75.8917 26.3063 75.4375 26.25 74.8875 25.8708C74.4646 25.575 74.0479 25.0896 73.6417 24.6167C73.0354 23.9125 72.5104 23.3042 71.9813 23.3042C71.914 23.3041 71.8472 23.3146 71.7833 23.3354C71.3833 23.4646 70.8708 24.0354 70.8708 25.5562C70.8708 26.0312 70.4958 26.3042 70.2313 26.3042H68.8C68.3125 26.3042 65.7729 26.1333 63.5229 23.7604C60.7687 20.8542 58.2896 15.025 58.2687 14.9708C58.1125 14.5937 58.4354 14.3917 58.7875 14.3917H61.9437C62.3646 14.3917 62.5021 14.6479 62.5979 14.875C62.7104 15.1396 63.1229 16.1917 63.8 17.375C64.8979 19.3042 65.5708 20.0875 66.1104 20.0875C66.2116 20.0863 66.311 20.0606 66.4 20.0125C67.1042 19.6208 66.9729 17.1104 66.9417 16.5896C66.9417 16.4917 66.9396 15.4667 66.5792 14.975C66.3208 14.6187 65.8812 14.4833 65.6146 14.4333C65.7225 14.2844 65.8647 14.1636 66.0292 14.0812C66.5125 13.8396 67.3833 13.8042 68.2479 13.8042H68.7292C69.6667 13.8167 69.9083 13.8771 70.2479 13.9625C70.9354 14.1271 70.95 14.5708 70.8896 16.0896C70.8708 16.5208 70.8521 17.0083 70.8521 17.5833C70.8521 17.7083 70.8458 17.8417 70.8458 17.9833C70.825 18.7562 70.8 19.6333 71.3458 19.9937C71.417 20.0384 71.4993 20.0622 71.5833 20.0625C71.7729 20.0625 72.3437 20.0625 73.8896 17.4104C74.3663 16.5568 74.7806 15.6697 75.1292 14.7562C75.1604 14.7021 75.2521 14.5354 75.3604 14.4708C75.4404 14.4301 75.529 14.4093 75.6187 14.4104H79.3292C79.7333 14.4104 80.0104 14.4708 80.0625 14.6271C80.1542 14.875 80.0458 15.6312 78.3521 17.925L77.5958 18.9229C76.0604 20.9354 76.0604 21.0375 77.6917 22.5646V22.5646Z" fill="white"/>
<path d="M117.008 1.2383C117.802 0.445378 118.878 0 120 0C121.122 0 122.198 0.445378 122.992 1.2383L138.759 17.0036C139.152 17.3968 139.465 17.8637 139.677 18.3776C139.89 18.8915 140 19.4423 140 19.9986C140 20.5549 139.89 21.1057 139.677 21.6196C139.465 22.1335 139.152 22.6004 138.759 22.9936L122.995 38.7589C122.602 39.1523 122.135 39.4645 121.621 39.6774C121.107 39.8904 120.556 40 120 40C119.444 40 118.893 39.8904 118.379 39.6774C117.865 39.4645 117.398 39.1523 117.005 38.7589L101.241 22.9936C100.848 22.6004 100.535 22.1335 100.323 21.6196C100.11 21.1057 100 20.5549 100 19.9986C100 19.4423 100.11 18.8915 100.323 18.3776C100.535 17.8637 100.848 17.3968 101.241 17.0036L112.359 5.88462L116.178 9.70386C115.922 10.2398 115.782 10.8235 115.766 11.4172C115.75 12.0109 115.86 12.6013 116.087 13.1499C116.314 13.6986 116.655 14.1933 117.086 14.6019C117.517 15.0105 118.029 15.3239 118.589 15.5216V24.4727C117.647 24.8057 116.853 25.4608 116.348 26.3223C115.843 27.1839 115.658 28.1963 115.827 29.1808C115.996 30.1652 116.507 31.0582 117.271 31.702C118.035 32.3458 119.001 32.6989 120 32.6989C120.999 32.6989 121.965 32.3458 122.729 31.702C123.493 31.0582 124.004 30.1652 124.173 29.1808C124.342 28.1963 124.157 27.1839 123.652 26.3223C123.147 25.4608 122.353 24.8057 121.411 24.4727V15.5245C121.552 15.4737 121.694 15.4172 121.826 15.3523L124.649 18.1751C124.218 19.0764 124.12 20.1009 124.372 21.0674C124.624 22.034 125.209 22.8805 126.025 23.4572C126.84 24.0339 127.833 24.3037 128.828 24.219C129.824 24.1342 130.757 23.7004 131.463 22.9941C132.169 22.2878 132.603 21.3545 132.688 20.3593C132.773 19.3641 132.503 18.3709 131.926 17.5554C131.349 16.7398 130.503 16.1544 129.537 15.9026C128.57 15.6508 127.546 15.7488 126.644 16.1793L123.822 13.3566C124.199 12.5664 124.322 11.6788 124.174 10.8158C124.026 9.95276 123.614 9.15689 122.995 8.53775C122.376 7.9186 121.58 7.50663 120.717 7.35856C119.854 7.21049 118.967 7.33361 118.177 7.71097L114.355 3.88608L117.008 1.23266V1.2383Z" fill="white"/>
</svg>
