<svg width="40" height="40" viewBox="0 0 40 40" fill="none" xmlns="http://www.w3.org/2000/svg">
<path d="M17.008 1.2383C17.8019 0.445378 18.878 0 20 0C21.122 0 22.1981 0.445378 22.992 1.2383L38.759 17.0036C39.1524 17.3968 39.4645 17.8637 39.6775 18.3776C39.8904 18.8915 40 19.4423 40 19.9986C40 20.5549 39.8904 21.1057 39.6775 21.6196C39.4645 22.1335 39.1524 22.6004 38.759 22.9936L22.9948 38.7589C22.6016 39.1523 22.1347 39.4645 21.6209 39.6774C21.107 39.8904 20.5562 40 20 40C19.4438 40 18.893 39.8904 18.3791 39.6774C17.8653 39.4645 17.3984 39.1523 17.0052 38.7589L1.24104 22.9936C0.847597 22.6004 0.535488 22.1335 0.322546 21.6196C0.109603 21.1057 0 20.5549 0 19.9986C0 19.4423 0.109603 18.8915 0.322546 18.3776C0.535488 17.8637 0.847597 17.3968 1.24104 17.0036L12.3592 5.88462L16.1782 9.70386C15.9222 10.2398 15.7818 10.8235 15.7661 11.4172C15.7504 12.0109 15.8598 12.6013 16.0871 13.1499C16.3145 13.6986 16.6547 14.1933 17.0856 14.6019C17.5166 15.0105 18.0287 15.3239 18.5887 15.5216V24.4727C17.6471 24.8057 16.8534 25.4608 16.3481 26.3223C15.8427 27.1839 15.6582 28.1963 15.8271 29.1808C15.996 30.1652 16.5074 31.0582 17.271 31.702C18.0346 32.3458 19.0012 32.6989 20 32.6989C20.9988 32.6989 21.9654 32.3458 22.729 31.702C23.4926 31.0582 24.004 30.1652 24.1729 29.1808C24.3418 28.1963 24.1573 27.1839 23.6519 26.3223C23.1466 25.4608 22.3529 24.8057 21.4113 24.4727V15.5245C21.5524 15.4737 21.6936 15.4172 21.8262 15.3523L24.6488 18.1751C24.2183 19.0764 24.1203 20.1009 24.3721 21.0674C24.6239 22.034 25.2092 22.8805 26.0247 23.4572C26.8402 24.0339 27.8333 24.3037 28.8285 24.219C29.8236 24.1342 30.7568 23.7004 31.4631 22.9941C32.1693 22.2878 32.6031 21.3545 32.6879 20.3593C32.7726 19.3641 32.5028 18.3709 31.9261 17.5554C31.3495 16.7398 30.5031 16.1544 29.5366 15.9026C28.57 15.6508 27.5456 15.7488 26.6444 16.1793L23.8218 13.3566C24.1991 12.5664 24.3222 11.6788 24.1742 10.8158C24.0261 9.95276 23.6142 9.15689 22.9951 8.53775C22.376 7.9186 21.5802 7.50663 20.7172 7.35856C19.8543 7.21049 18.9667 7.33361 18.1766 7.71097L14.3548 3.88608L17.008 1.23266V1.2383Z" fill="white"/>
</svg>
